Coordinates
version=1
nRows=16
nColumns=36
inDegrees=yes

Units are S.I. units (second, meters, Newtons, ...)
If the header above contains a line with 'inDegrees', this indicates whether rotational values are in degrees (yes) or radians (no).

endheader
time	pelvis_tilt	pelvis_list	pelvis_rotation	pelvis_tx	pelvis_ty	pelvis_tz	hip_flexion_r	hip_adduction_r	hip_rotation_r	knee_angle_r	knee_angle_r_beta	ankle_angle_r	subtalar_angle_r	mtp_angle_r	hip_flexion_l	hip_adduction_l	hip_rotation_l	knee_angle_l	knee_angle_l_beta	ankle_angle_l	subtalar_angle_l	mtp_angle_l	lumbar_extension	lumbar_bending	lumbar_rotation	arm_flex_r	arm_add_r	arm_rot_r	elbow_flex_r	pro_sup_r	arm_flex_l	arm_add_l	arm_rot_l	elbow_flex_l	pro_sup_l
      0.00000000	      5.82131557	     -3.97525723	     -2.14097360	      0.44960177	      0.92467383	      0.75156479	     12.08876114	      6.58959065	     -1.24731401	     17.98693501	      0.31393124	      2.53048833	    -12.71325346	     -7.32908906	     -3.69416864	     -5.29778756	     -1.76055539	     54.37426181	      0.94900990	     -1.98077980	    -19.04389749	     -7.32908906	    -15.20006383	      4.64216569	     -0.60713295	     -4.76871726	     -7.51112337	    -17.39858188	     24.47490549	     90.90078610	     16.62711736	    -10.55437685	      8.65954238	     29.41864548	     89.84013287
      0.01666670	      7.86456963	     -4.17292561	     -2.75222369	      0.45260662	      0.92876905	      0.75410331	      7.99675415	      7.01356028	     -2.13638962	     16.72271669	      0.29186647	      2.02100542	    -13.44599612	     -7.33263049	     -3.02808496	     -5.83406021	     -3.29275271	     57.12600792	      0.99703693	      0.69304223	    -21.28496778	     -7.33263049	    -17.42358973	      4.63436206	      0.37410869	     -3.28555687	     -7.41903242	    -18.07429703	     23.97748446	     90.77560351	     16.12774546	    -10.31756668	      8.10534509	     29.66703240	     89.58243031
      0.03333330	      9.97144013	     -3.98030584	     -2.53282787	      0.44989729	      0.93679756	      0.75409844	      3.86131340	      6.95626128	     -2.10117237	     15.47646324	      0.27011524	      2.61193999	    -12.52901367	     -7.32874243	     -2.06632618	     -5.53474249	     -3.14832880	     59.21810850	      1.03355097	      4.87446563	    -20.68015482	     -7.32874243	    -19.92827052	      4.60621360	      0.59003384	     -1.48454516	     -7.49787433	    -18.21610619	     23.05254447	     89.85322302	     15.57344943	    -10.21384147	      7.70266980	     28.76629115	     88.58531678
      0.05000000	     11.16567724	     -3.66441259	     -2.43734691	      0.44666173	      0.94259741	      0.75435438	      0.56657247	      6.87039516	     -1.65101075	     13.90411001	      0.24267250	      3.83542044	    -11.68576853	     -7.34367513	      0.13115555	     -5.12832896	     -3.33506541	     60.66563970	      1.05881516	      7.72858421	    -19.49981212	     -7.34367513	    -21.63371533	      4.42375438	      1.08008824	      0.50659804	     -7.86293969	    -17.00105802	     21.58097868	     89.29925919	     14.64987806	     -9.92396707	      7.69177611	     27.47860322	     87.94070277
      0.06666670	     11.98762568	     -3.14187399	     -2.67580894	      0.44709739	      0.94309454	      0.75715657	     -2.38643677	      6.49429462	     -0.89860079	     12.32911438	      0.21518364	      4.69725448	    -11.23139257	     -7.35556096	      2.73110063	     -4.29254764	     -3.47489225	     61.46014375	      1.07268187	      9.23959757	    -18.30113801	     -7.35556096	    -22.80298981	      3.77846855	      1.77078410	      2.25092534	     -8.06150109	    -15.89561819	     21.26965781	     87.43965236	     13.44896099	     -9.68422042	      7.60696141	     26.07940425	     86.02411673
      0.08333330	     12.09437176	     -2.77798551	     -2.79585215	      0.44763372	      0.93886131	      0.75836944	     -4.62876062	      6.20455089	     -0.84650078	     10.72560906	      0.18719719	      5.67112716	    -10.06315562	     -7.35881821	      6.06288023	     -3.54031946	     -3.30036975	     61.47732752	      1.07298178	     10.72226757	    -16.29643339	     -7.35881821	    -23.01571246	      3.34514899	      2.34704416	      3.91208880	     -8.44972675	    -14.66083379	     21.59024683	     87.73450780	     12.17420865	     -9.55315032	      7.63284988	     24.50300167	     86.18639248
      0.10000000	     11.71422944	     -2.35762847	     -2.95803102	      0.44356566	      0.93464776	      0.75537379	     -6.29548191	      5.81898900	     -0.90283730	      9.11573860	      0.15909965	      6.51850314	     -8.94291101	     -7.37847360	      9.54223377	     -2.63736730	     -3.14607474	     60.04833815	      1.04804121	     11.69289979	    -14.24132546	     -7.37847360	    -22.66831086	      2.84188953	      2.60888767	      6.11643332	     -9.50957444	     -8.95102046	     21.74264399	     86.82489765	     10.80524376	     -9.50587233	      7.30576187	     23.08333295	     85.74841277
      0.11666670	     11.23331716	     -2.01039834	     -3.07350854	      0.43626549	      0.93228638	      0.75098181	     -7.78142940	      5.52521453	     -0.83989535	      7.46473748	      0.13028425	      6.88897974	     -8.33872697	     -7.37769836	     12.67415197	     -1.80191399	     -3.05391064	     57.31118757	      1.00026892	     12.28818586	    -12.31596409	     -7.37769836	    -22.53970863	      2.52512472	      2.88979690	      8.05534311	    -10.05255812	     -8.47008250	     24.22729373	     84.80546807	      9.27415829	     -9.52235063	      6.76027671	     22.70149996	     83.85719366
      0.13333330	     10.29214173	     -1.58132287	     -3.30205204	      0.42898388	      0.92987682	      0.74963377	     -8.43015436	      5.17034515	     -0.60848560	      6.38244361	      0.11139466	      7.77807153	     -8.21959256	     -7.39476233	     15.92791309	     -0.91136378	     -2.93630525	     53.77051640	      0.93847255	     12.57177308	    -10.47876466	     -7.39476233	    -21.63263427	      2.05696497	      3.32326873	     10.47817267	    -11.44823095	     -3.47027887	     25.26676185	     84.80615595	      8.48946513	     -9.30788121	      6.45205984	     20.35670342	     85.27078191
      0.15000000	      9.66963713	     -1.35983751	     -3.59688576	      0.42271447	      0.92758018	      0.75215043	     -9.33714247	      5.02852011	     -0.51193702	      5.44136910	      0.09496981	      8.85027423	     -8.09133303	     -7.44027733	     18.49664633	     -0.37380617	     -2.67694025	     49.84234469	      0.86991302	     12.29874934	     -9.41810513	     -7.44027733	    -21.29467715	      1.76449885	      3.50082600	     13.08955987	    -12.32354258	     -1.50478945	     27.18086649	     84.80651795	      7.18382361	     -9.00762888	      2.75902436	     19.59744384	     90.64837521
      0.16666670	      9.29195484	     -1.27392590	     -3.85536916	      0.41820704	      0.92581660	      0.75567463	    -10.57228258	      5.03399810	     -0.30737749	      4.39145574	      0.07664536	      9.96543630	     -7.98490273	     -7.43793799	     20.43414034	     -0.17201143	     -2.16635704	     45.69906393	      0.79759913	     11.68430723	     -8.96550581	     -7.43793799	    -21.14944714	      1.63456720	      4.08984172	     15.50139584	    -13.37199345	      0.05541046	     29.45010105	     84.57435315	      6.61532391	     -8.96776140	      2.80724216	     18.09244486	     90.38769607
      0.18333330	      9.09570749	     -1.09284680	     -3.99757455	      0.41671985	      0.92462220	      0.75727124	    -12.20439803	      4.89813459	     -0.28412668	      2.95169328	      0.05151677	     11.27866862	     -7.18010844	     -7.43247381	     21.62955835	     -0.04342832	     -1.43385440	     41.17365436	      0.71861583	     10.78821986	     -8.84119429	     -7.43247381	    -21.15914648	      1.40437218	      4.55317662	     18.12161916	    -14.16002590	      0.80841832	     31.24735789	     84.47386265	      5.93415273	     -9.13211622	      2.63005076	     16.90441484	     90.37327029
      0.20000000	      8.87593614	     -1.01034401	     -4.31001445	      0.41839575	      0.92368929	      0.75608404	    -13.84515818	      4.73885131	      0.16084761	      1.38178707	      0.02411673	     12.26215697	     -6.71164005	     -7.43645586	     22.35421590	     -0.28329078	     -0.95749449	     36.51792461	      0.63735802	     10.00056256	     -8.77999940	     -7.43645586	    -21.23949441	      1.23476144	      5.40417450	     20.55202865	    -15.52986825	      3.18807850	     32.97756335	     84.47783748	      5.37645912	     -9.24333249	      2.29517631	     15.45939089	     90.26725845
      0.21666670	      8.33059244	     -0.98333571	     -4.92145310	      0.42213893	      0.92320244	      0.75324684	    -14.76431998	      4.44810635	      0.86343552	      0.54700378	      0.00954702	     13.50346259	     -6.16396092	     -7.44475398	     22.94210749	     -0.74879558	     -0.78464805	     31.61336333	      0.55175728	      9.30830819	     -8.51553529	     -7.44475398	    -20.95600247	      1.18051727	      6.24765715	     22.85537876	    -16.43522557	      4.14646591	     34.53349780	     84.02677063	      4.16376447	     -9.27551313	      1.64841527	     14.48905948	     89.83252240
      0.23333330	      7.48538323	     -1.10324983	     -5.68971646	      0.42500710	      0.92332292	      0.75026335	    -15.03426977	      4.19617101	      1.34180700	      0.30606024	      0.00534176	     14.90505097	     -5.17147280	     -7.45214153	     23.54059823	     -1.39988204	     -0.80780777	     26.58260788	      0.46395403	      8.81816751	     -8.01668038	     -7.45214153	    -20.32599247	      1.31882104	      7.26234408	     24.65323132	    -17.45425899	      5.10262110	     36.35963039	     82.83520046	      2.78065544	     -9.07180179	      1.03361682	     13.71472803	     88.42256598
      0.25000000	      6.57810989	     -1.32870643	     -6.56434348	      0.42498622	      0.92358784	      0.74793555	    -15.08691930	      4.01899096	      2.70989005	      0.21802959	      0.00380533	     15.62203686	     -5.53423586	     -7.45778391	     24.00607413	     -2.13342510	     -1.03185726	     21.50207716	      0.37528204	      8.65901697	     -6.97721368	     -7.45778391	    -19.70397861	      1.56861445	      8.09419294	     26.15045590	    -18.17482709	      5.27622271	     38.41970571	     81.44272000	      1.08141304	     -8.81863625	      0.78155353	     13.80815723	     86.52309001
